<svg xmlns="http://www.w3.org/2000/svg" width="13.859" height="13.864" viewBox="0 0 13.859 13.864"><defs><style>.a{fill:#b0b6ba;}</style></defs><g transform="translate(-1572.402 -2644.508)"><path class="a" d="M1580.2,2579.013a1.23,1.23,0,0,1-1.736,0l-5.7-5.7a1.232,1.232,0,0,1,0-1.738l5.7-5.706a1.233,1.233,0,0,1,1.736,0l5.7,5.706a1.232,1.232,0,0,1,0,1.738Zm-.144-9.854a.82.82,0,0,0-1.154,0l-2.691,2.691a.818.818,0,0,0,0,1.154l2.691,2.691a.818.818,0,0,0,1.154,0l2.691-2.691a.82.82,0,0,0,0-1.154Z" transform="translate(0 79)"/></g></svg>